<svg xmlns="http://www.w3.org/2000/svg" xmlns:xlink="http://www.w3.org/1999/xlink" width="500" zoomAndPan="magnify" viewBox="0 0 375 374.999991" height="500" preserveAspectRatio="xMidYMid meet" version="1.0"><defs><g/><clipPath id="id1"><path d="M 243.25 113.664062 L 364.75 113.664062 L 364.75 289.914062 L 243.25 289.914062 Z M 243.25 113.664062 " clip-rule="nonzero"/></clipPath></defs><g fill="#5e16eb" fill-opacity="1"><g transform="translate(7.03093, 230.16202)"><g><path d="M 8.21875 -113.03125 L 40.96875 -113.03125 C 56.675781 -113.03125 70.097656 -107.660156 81.234375 -96.921875 C 92.378906 -86.191406 97.953125 -72.742188 97.953125 -56.578125 C 97.953125 -40.316406 92.398438 -26.820312 81.296875 -16.09375 C 70.203125 -5.363281 56.757812 0 40.96875 0 L 8.21875 0 Z M 33.96875 -23.015625 L 37.953125 -23.015625 C 47.359375 -23.015625 55.050781 -26.1875 61.03125 -32.53125 C 67.007812 -38.882812 70.046875 -46.851562 70.140625 -56.4375 C 70.140625 -66.03125 67.148438 -74.023438 61.171875 -80.421875 C 55.191406 -86.816406 47.453125 -90.015625 37.953125 -90.015625 L 33.96875 -90.015625 Z M 33.96875 -23.015625 "/></g></g></g><g fill="#5e16eb" fill-opacity="1"><g transform="translate(108.131178, 230.16202)"><g><path d="M 33.96875 -113.03125 L 33.96875 0 L 8.21875 0 L 8.21875 -113.03125 Z M 33.96875 -113.03125 "/></g></g></g><g fill="#5e16eb" fill-opacity="1"><g transform="translate(150.324775, 230.16202)"><g><path d="M -4.109375 -113.03125 L 26.859375 -113.03125 L 50.421875 -76.859375 L 73.984375 -113.03125 L 104.9375 -113.03125 L 63.296875 -50.6875 L 63.296875 0 L 37.53125 0 L 37.53125 -50.6875 Z M -4.109375 -113.03125 "/></g></g></g><g clip-path="url(#id1)"><path fill="#f44336" d="M 303.984375 113.71875 C 270.496094 113.71875 243.34375 140.894531 243.34375 174.414062 C 243.34375 207.785156 303.984375 271.726562 303.984375 290.03125 C 303.984375 271.726562 364.625 207.785156 364.625 174.414062 C 364.625 140.894531 337.472656 113.71875 303.984375 113.71875 Z M 303.984375 207.785156 C 285.558594 207.785156 270.617188 192.832031 270.617188 174.390625 C 270.617188 155.949219 285.558594 140.996094 303.984375 140.996094 C 322.414062 140.996094 337.347656 155.949219 337.347656 174.390625 C 337.347656 192.832031 322.414062 207.785156 303.984375 207.785156 Z M 303.984375 207.785156 " fill-opacity="1" fill-rule="nonzero"/></g></svg>